<svg width="72" height="88" viewBox="0 0 72 88" fill="none" xmlns="http://www.w3.org/2000/svg">
<path fill-rule="evenodd" clip-rule="evenodd" d="M58.8194 67.6234H12.2195V77.1345V77.165V77.1711L12.2229 77.2017V77.2078V77.2382V77.2445V77.2749V77.281L12.2256 77.3116L12.229 77.3481L12.2317 77.3848L12.2351 77.4216L12.2378 77.4581L12.2412 77.4948L12.2473 77.5252V77.5315L12.2532 77.5619L12.2598 77.5986L12.2659 77.6352L12.272 77.6719L12.2779 77.7025L12.284 77.7392L12.2933 77.7698L12.3026 77.8065L12.3114 77.8433L12.3207 77.8737L12.33 77.9104L12.3393 77.9408L12.3513 77.9775L12.3606 78.0082L12.37 78.0449L12.3819 78.0753L12.3939 78.112L12.4067 78.1425L12.4187 78.1733L12.4306 78.2039L12.446 78.2404L12.4615 78.2708L12.4734 78.3015L12.4888 78.3323L12.5042 78.3627L12.5168 78.3933L12.5349 78.424L12.5503 78.4605L12.5657 78.485L12.5838 78.5156L12.6024 78.5461L12.6178 78.5767L12.6359 78.6073L12.6545 78.638L12.6726 78.6684L12.6912 78.6929L12.7125 78.7234L12.7314 78.7542L12.7494 78.7785L12.7707 78.8091L12.792 78.8335L12.8107 78.8643L12.832 78.8888L12.8533 78.9193L12.878 78.9438L12.8961 78.9684L12.9208 78.999L12.9421 79.0235L12.9634 79.0479L12.9881 79.0724L13.0121 79.0969L13.0368 79.1213L13.0614 79.1458C13.5755 79.666 14.2911 79.9845 15.0748 79.9845H55.9645H56.0012H56.0377H56.0718H56.0744H56.1053H56.1111H56.142L56.1479 79.9782H56.1785H56.1846H56.2152H56.2186L56.2492 79.9721H56.2551H56.2827L56.2886 79.9662H56.3194H56.3253L56.3533 79.9599H56.362L56.3866 79.954H56.3986L56.4233 79.9479H56.4326L56.4568 79.9417H56.4661L56.4908 79.9358H56.5028L56.5275 79.9297H56.5368L56.5581 79.9234H56.5735L56.5948 79.9175L56.6068 79.9116H56.6257L56.6403 79.9053L56.6622 79.8992H56.6744L56.6922 79.8933L56.7111 79.8871L56.7265 79.881H56.7417L56.76 79.8751L56.7786 79.8688L56.7938 79.8629L56.8094 79.8566H56.8273L56.8461 79.8505L56.8581 79.8446L56.876 79.8384L56.8887 79.8323L56.91 79.8264L56.922 79.8203L56.9435 79.814L56.9561 79.8081L56.9741 79.802L56.9861 79.7958L57.0106 79.7899L57.0167 79.7838L57.0415 79.7777L57.0508 79.7716L57.0721 79.7655L57.0816 79.7594L57.1027 79.7473H57.1147L57.136 79.7353H57.1453L57.1668 79.7229L57.1727 79.717L57.2001 79.7047H57.2068L57.2307 79.6927H57.2368L57.2922 79.662L57.295 79.656L57.3228 79.644L57.3536 79.6255L57.3837 79.6132L57.4143 79.5947L57.5244 79.5213H57.5303L57.555 79.5028L57.5857 79.4785L57.6106 79.4663L57.6132 79.4602L57.6345 79.4481L57.641 79.442L57.6899 79.4055L57.696 79.3992L57.7753 79.3381L57.7941 79.3197L57.8027 79.3138L57.8546 79.2706L57.8702 79.2584L57.8795 79.2464L57.8947 79.2341L57.9041 79.2221L57.9195 79.2099L57.9282 79.2038L57.9434 79.1917L57.9562 79.1795L57.9802 79.1489C58.0937 79.0387 58.1979 78.9164 58.2892 78.788V78.7818L58.3695 78.6716L58.406 78.6106L58.4549 78.5248V78.5189L58.4728 78.4943V78.4883L58.4882 78.4637H58.4916L58.5036 78.4331V78.4272L58.5223 78.4027V78.3966L58.5342 78.372L58.5377 78.366L58.5531 78.3414V78.3355L58.565 78.3047L58.5805 78.2741L58.5959 78.2436L58.6078 78.213V78.2071L58.6328 78.152V78.1457L58.6447 78.1153L58.6567 78.0846V78.0785L58.6693 78.0481L58.6813 78.0173V78.0114L58.6906 77.9808L58.6999 77.9502V77.9441L58.7119 77.9136L58.718 77.883L58.7214 77.8769L58.73 77.8465L58.7366 77.8098H58.7393L58.7454 77.7792L58.7486 77.7731L58.7547 77.7424L58.7608 77.7057L58.7674 77.6751L58.7733 77.6384L58.7792 77.6019L58.7851 77.5714L58.7885 77.5652L58.7912 77.5347V77.5285L58.7973 77.498L58.8007 77.4613H58.8041V77.4248L58.8102 77.3881V77.3514H58.8129V77.3148H58.8163V77.2842V77.2781V77.2477L58.819 77.2414V77.211V77.2049V77.1743V77.1378V67.6234H58.8194ZM12.2195 66.1177H58.8194V64.1591H40.4192C40.0028 64.1591 39.6663 63.8225 39.6663 63.4065V45.6148C39.6663 45.1986 40.0028 44.8617 40.4192 44.8617H58.8194C58.8194 31.9968 58.8194 19.1257 58.8194 6.25469C58.8194 5.4714 58.4983 4.76135 57.9783 4.24112C57.4643 3.72717 56.7478 3.40267 55.9643 3.40267H15.0746C14.2909 3.40267 13.5753 3.7209 13.058 4.24112C12.5406 4.75507 12.2195 5.4714 12.2195 6.25469V11.1022H52.6472C53.0638 11.1022 53.4003 11.4389 53.4003 11.8551C53.4003 12.2712 53.0638 12.6077 52.6472 12.6077H12.2195V17.2042H17.6179C18.0304 17.2042 18.3675 17.5408 18.3675 17.957V30.2528C18.3675 30.669 18.0304 31.0054 17.6179 31.0054H12.2195V66.1177ZM36.8658 72.4342C36.52 72.0913 36.0428 71.8769 35.5193 71.8769C34.9959 71.8769 34.5186 72.0913 34.1763 72.4342C33.8305 72.777 33.6188 73.2542 33.6188 73.7805C33.6188 74.3069 33.8305 74.7841 34.1763 75.127C34.5186 75.4698 34.9961 75.6842 35.5193 75.6842C36.046 75.6842 36.5198 75.4698 36.8658 75.127C37.209 74.7841 37.4233 74.3069 37.4233 73.7805C37.4233 73.2542 37.2088 72.7768 36.8658 72.4342ZM35.5193 70.3716C36.462 70.3716 37.3157 70.7572 37.9278 71.3691C38.546 71.9872 38.9285 72.8381 38.9285 73.7805C38.9285 74.723 38.546 75.574 37.9278 76.192C37.3157 76.8102 36.462 77.1897 35.5193 77.1897C34.5801 77.1897 33.7264 76.8102 33.1109 76.192C32.4927 75.574 32.1136 74.723 32.1136 73.7805C32.1136 72.8381 32.4927 71.9872 33.1109 71.3691C33.7264 70.7572 34.5801 70.3716 35.5193 70.3716ZM41.1714 46.3674V62.6538H59.5724H59.5937H66.6657V46.3674C58.1677 46.3674 49.6699 46.3674 41.1714 46.3674ZM15.6867 1.89735H55.9643C57.164 1.89735 58.2531 2.38695 59.043 3.17651C59.833 3.96608 60.3254 5.05541 60.3254 6.25507V41.4592H62.1216V2.85202C62.1216 2.06854 61.7973 1.3524 61.2832 0.838448C60.7627 0.318032 60.0496 0 59.2633 0H18.3795C17.6205 0 16.9255 0.293685 16.4148 0.783287C16.0905 1.08934 15.8396 1.469 15.6867 1.89735ZM31.8838 8.39075C31.4707 8.39075 31.131 8.05408 31.131 7.63809C31.131 7.22191 31.4707 6.88524 31.8838 6.88524H39.1581C39.5741 6.88524 39.9109 7.22191 39.9109 7.63809C39.9109 8.05427 39.5741 8.39075 39.1581 8.39075H31.8838ZM43.5065 50.1317C43.0933 50.1317 42.7536 49.795 42.7536 49.3788C42.7536 48.9626 43.0933 48.626 43.5065 48.626H52.9778C53.3942 48.626 53.7307 48.9626 53.7307 49.3788C53.7307 49.795 53.3942 50.1317 52.9778 50.1317H43.5065ZM43.5065 53.2711C43.0933 53.2711 42.7536 52.9344 42.7536 52.5184C42.7536 52.1025 43.0933 51.7656 43.5065 51.7656H64.3311C64.7471 51.7656 65.0836 52.1025 65.0836 52.5184C65.0836 52.9344 64.7469 53.2711 64.3311 53.2711H43.5065ZM43.5065 56.4109C43.0933 56.4109 42.7536 56.0742 42.7536 55.6581C42.7536 55.2419 43.0933 54.9054 43.5065 54.9054H64.3311C64.7471 54.9054 65.0836 55.2421 65.0836 55.6581C65.0836 56.0742 64.7469 56.4109 64.3311 56.4109H43.5065ZM43.5065 59.5507C43.0933 59.5507 42.7536 59.214 42.7536 58.798C42.7536 58.3819 43.0933 58.045 43.5065 58.045H64.3311C64.7471 58.045 65.0836 58.3819 65.0836 58.798C65.0836 59.2142 64.7469 59.5507 64.3311 59.5507H43.5065ZM8.79819 24.8544C8.38505 24.8544 8.04857 24.5177 8.04857 24.1018C8.04857 23.6858 8.38505 23.3491 8.79819 23.3491H10.7166V21.4333C10.7166 21.0171 11.0531 20.6806 11.4697 20.6806C11.8828 20.6806 12.2193 21.0173 12.2193 21.4333V23.3491H14.1351C14.5511 23.3491 14.8874 23.6858 14.8874 24.1018C14.8874 24.5177 14.5509 24.8544 14.1351 24.8544H12.2193V26.7702C12.2193 27.1864 11.8828 27.5229 11.4697 27.5229C11.0531 27.5229 10.7166 27.1862 10.7166 26.7702V24.8544H8.79819ZM24.9254 18.1345C24.5122 18.1345 24.1725 17.7917 24.1725 17.3816C24.1725 16.9654 24.5122 16.629 24.9254 16.629H37.6921C38.1052 16.629 38.4452 16.9656 38.4452 17.3816C38.4452 17.7917 38.1052 18.1345 37.6921 18.1345H24.9254ZM24.9254 22.2107C24.5122 22.2107 24.1725 21.8738 24.1725 21.4578C24.1725 21.0477 24.5122 20.7052 24.9254 20.7052H43.6567C44.0727 20.7052 44.409 21.0477 44.409 21.4578C44.409 21.874 44.0725 22.2107 43.6567 22.2107H24.9254ZM24.9254 26.2928C24.5122 26.2928 24.1725 25.9561 24.1725 25.5399C24.1725 25.1238 24.5122 24.7871 24.9254 24.7871H52.8673C53.2839 24.7871 53.6203 25.124 53.6203 25.5399C53.6203 25.9561 53.2839 26.2928 52.8673 26.2928H24.9254ZM24.9254 30.3751C24.5122 30.3751 24.1725 30.0382 24.1725 29.6222C24.1725 29.2062 24.5122 28.8694 24.9254 28.8694H52.8673C53.2839 28.8694 53.6203 29.2062 53.6203 29.6222C53.6203 30.0382 53.2839 30.3751 52.8673 30.3751H24.9254ZM24.9254 34.4574C24.5122 34.4574 24.1725 34.1207 24.1725 33.7045C24.1725 33.2884 24.5122 32.9517 24.9254 32.9517H52.8673C53.2839 32.9517 53.6203 33.2884 53.6203 33.7045C53.6203 34.1207 53.2839 34.4574 52.8673 34.4574H24.9254ZM1.83914 84.5522C1.42315 84.5522 1.08686 84.2155 1.08686 83.7993C1.08686 83.3833 1.42334 83.0466 1.83914 83.0466H50.2114C50.6247 83.0466 50.9608 83.3835 50.9608 83.7993C50.9608 84.2155 50.6245 84.5522 50.2114 84.5522H1.83914ZM71.247 85.9905C71.6603 85.9905 72 86.3274 72 86.7434C72 87.1594 71.6603 87.4962 71.247 87.4962H28.5576C28.1445 87.4962 27.8048 87.1594 27.8048 86.7434C27.8048 86.3274 28.1445 85.9905 28.5576 85.9905H71.247ZM25.1331 85.9905C25.5462 85.9905 25.8861 86.3274 25.8861 86.7434C25.8861 87.1594 25.5462 87.4962 25.1331 87.4962H20.9504C20.5338 87.4962 20.1973 87.1594 20.1973 86.7434C20.1973 86.3274 20.5338 85.9905 20.9504 85.9905H25.1331ZM53.5591 84.5522C53.1458 84.5522 52.806 84.2155 52.806 83.7993C52.806 83.3833 53.1458 83.0466 53.5591 83.0466H57.7452C58.1616 83.0466 58.4983 83.3835 58.4983 83.7993C58.4983 84.2155 58.1616 84.5522 57.7452 84.5522H53.5591ZM0 27.5659C0 27.8537 0.183553 28.1473 0.422458 28.2451C0.924423 28.4962 1.50266 28.1106 1.50266 27.5659V26.0663C1.50266 25.7787 1.31569 25.4848 1.08002 25.3872C0.578621 25.1361 0 25.5217 0 26.0663V27.5659ZM0 33.5822C0 33.8698 0.183553 34.1637 0.422458 34.2617C0.924423 34.5063 1.50266 34.1268 1.50266 33.5822V32.0828C1.50266 31.7948 1.31569 31.5013 1.08002 31.4034C0.578621 31.1527 0 31.538 0 32.0828V33.5822ZM5.64944 35.4549C5.93381 35.4549 6.23091 35.2652 6.32564 35.0265C6.57653 34.5308 6.1942 33.9493 5.64944 33.9493H4.14354C3.86184 33.9493 3.5655 34.1331 3.47058 34.3716C3.21969 34.8736 3.59878 35.4549 4.14354 35.4549H5.64944ZM5.33369 40.2778C5.33369 40.5593 5.52067 40.8593 5.75957 40.951C6.26097 41.2021 6.83959 40.8224 6.83959 40.2778V38.7723C6.83959 38.4908 6.6528 38.1906 6.41713 38.099C5.91517 37.8483 5.33369 38.2276 5.33369 38.7723V40.2778ZM5.33369 46.2942C5.33369 46.5755 5.52067 46.8757 5.75957 46.9673C6.26097 47.2182 6.83959 46.8389 6.83959 46.2942V44.7885C6.83959 44.5072 6.6528 44.207 6.41713 44.1153C5.91517 43.8644 5.33369 44.2439 5.33369 44.7885V46.2942ZM5.33369 52.3105C5.33369 52.5919 5.52067 52.8857 5.75957 52.9837C6.26097 53.2346 6.83959 52.849 6.83959 52.3105V50.8048C6.83959 50.5172 6.6528 50.2234 6.41713 50.1254C5.91517 49.8747 5.33369 50.2603 5.33369 50.8048V52.3105ZM5.33369 58.3206C5.33369 58.6082 5.52067 58.9021 5.75957 58.9997C6.26097 59.2508 6.83959 58.8652 6.83959 58.3206V56.8208C6.83959 56.5332 6.6528 56.2393 6.41713 56.1418C5.91517 55.8909 5.33369 56.2762 5.33369 56.8208V58.3206ZM5.33369 64.3368C5.33369 64.6246 5.52067 64.9183 5.75957 65.0162C6.26097 65.2669 6.83959 64.8814 6.83959 64.3368V62.8374C6.83959 62.5496 6.6528 62.2559 6.41713 62.1579C5.91517 61.9072 5.33369 62.2926 5.33369 62.8374V64.3368ZM1.50266 20.0501C1.50266 19.7625 1.31569 19.4686 1.08002 19.3707C0.578621 19.12 0 19.5055 0 20.0501V21.5558C0 21.8371 0.183553 22.1308 0.422458 22.2289C0.924423 22.4798 1.50266 22.1004 1.50266 21.5558V20.0501ZM16.8648 29.4999V18.7097C13.266 18.7097 9.66992 18.7097 6.07133 18.7097V29.4999C9.67011 29.4999 13.266 29.4999 16.8648 29.4999Z" fill="white"/>
</svg>
