<svg width="72" height="76" viewBox="0 0 72 76" fill="none" xmlns="http://www.w3.org/2000/svg">
<path fill-rule="evenodd" clip-rule="evenodd" d="M45.9802 40.6471L40.6469 45.9802L60.5809 65.9139L65.9137 60.5809L45.9802 40.6471ZM39.3794 45.5576L45.5577 39.3794C45.7907 39.1463 46.1695 39.1463 46.4027 39.3794L66.7589 59.7357L72 54.4948L46.121 28.6161C45.9851 28.4753 45.917 28.2761 45.9557 28.0721C46.7621 24.2835 46.6115 20.3347 45.5089 16.6142C44.4452 13.0249 42.4974 9.63948 39.6608 6.80774C34.0119 1.15409 25.8765 -1.18702 18.081 0.576224L35.1243 17.6149C35.3575 17.8482 35.3575 18.2268 35.1243 18.4601L18.4599 35.1244C18.2316 35.3577 17.8479 35.3577 17.6195 35.1244L0.576205 18.081C-1.18704 25.8767 1.15424 34.0073 6.80772 39.661C9.64437 42.4927 13.0248 44.4454 16.6142 45.504C20.3298 46.6066 24.264 46.757 28.043 45.9606C28.242 45.912 28.4606 45.9606 28.6159 46.1159L54.4992 71.9994L59.7354 66.7586L39.3794 46.4027C39.1463 46.1695 39.1463 45.7907 39.3794 45.5576ZM15.6477 12.879C14.9433 12.879 14.2341 13.1511 13.6901 13.6901C13.1512 14.2292 12.8841 14.9384 12.8841 15.6475C12.8841 16.3567 13.1512 17.0659 13.6901 17.6097C14.2343 18.1489 14.9434 18.4161 15.6477 18.4161C16.3469 18.4161 17.0415 18.1587 17.5807 17.639L17.61 17.6097C18.1489 17.0659 18.421 16.3567 18.421 15.6475C18.421 14.9431 18.1489 14.2292 17.61 13.6901C17.066 13.1511 16.3567 12.879 15.6477 12.879ZM12.8498 12.8499C13.6224 12.0728 14.6375 11.6889 15.6477 11.6889C16.6626 11.6889 17.6778 12.0728 18.4503 12.8451C19.2274 13.622 19.6111 14.6372 19.6111 15.6475C19.6111 16.6627 19.2274 17.6778 18.4552 18.45L18.4112 18.4889C17.6439 19.2367 16.6482 19.611 15.6477 19.611C14.6375 19.611 13.6222 19.2225 12.8498 18.45C12.0777 17.6778 11.689 16.6627 11.689 15.6475C11.689 14.6372 12.0777 13.622 12.8498 12.8499ZM10.7664 10.7662L7.07489 17.4155L13.8895 24.2253L20.5337 20.5337L24.2252 13.8846L17.4155 7.06983L10.7664 10.7662ZM25.7796 61.0177C25.2354 60.4738 24.4826 60.1386 23.6521 60.1386C22.8361 60.1386 22.093 60.464 21.5538 60.9885L21.5248 61.0177C20.9808 61.5616 20.6406 62.3145 20.6406 63.1451C20.6406 63.9807 20.9808 64.7334 21.5199 65.2725C22.064 65.8214 22.8166 66.1565 23.6521 66.1565C24.4826 66.1565 25.2354 65.8165 25.7796 65.2725C26.3234 64.7334 26.6585 63.9805 26.6585 63.1451C26.6587 62.3145 26.3234 61.5618 25.7796 61.0177ZM23.6521 58.9437C24.8129 58.9437 25.8621 59.415 26.6246 60.1726C27.3821 60.935 27.8535 61.9843 27.8535 63.1451C27.8535 64.306 27.3822 65.3551 26.6197 66.1177C25.8619 66.88 24.8129 67.3513 23.6521 67.3513C22.4959 67.3513 21.442 66.88 20.6845 66.1177C19.9169 65.3551 19.4459 64.3011 19.4459 63.1451C19.4459 61.9843 19.9169 60.935 20.6798 60.1726L20.7186 60.1386C21.4762 59.4003 22.5155 58.9437 23.6521 58.9437ZM24.5749 52.7899H22.7293V54.6405C22.914 54.6211 23.0985 54.6064 23.288 54.5967H23.3023H23.3365H23.3509H23.3655H23.3753L23.3899 54.592H23.4043H23.4141H23.4288H23.4386H23.4529H23.4676H23.4774H23.492H23.5018H23.5162H23.5261H23.5408H23.5554H23.5649H23.5796H23.5894H23.604H23.6135H23.628H23.6379H23.6524H23.6623H23.6765H23.6863H23.7009H23.7155H23.725H23.7395H23.7494H23.7639H23.7734H23.788H23.8027H23.8125H23.8269H23.8368H23.8513H23.8612H23.871H23.8756H23.8901H23.9H23.9147L23.9289 54.5967H23.9388H23.9535H23.9633H24.0021H24.0167C24.2061 54.6064 24.3907 54.621 24.5752 54.6405V52.7899H24.5749ZM31.6274 56.4715L30.3258 55.1699L29.0145 56.4813L29.0679 56.5252L29.092 56.5445L29.1018 56.5543L29.1116 56.5591L29.1214 56.5689L29.1309 56.5787L29.1455 56.5884L29.1553 56.5983L29.1651 56.6031L29.175 56.6127L29.1799 56.6175L29.1845 56.6224L29.2039 56.6419L29.2138 56.6466L29.2236 56.6565L29.2334 56.6612V56.6661L29.2478 56.6759L29.2869 56.7098L29.2964 56.7196C29.4424 56.8459 29.5783 56.9673 29.7047 57.0983C29.8406 57.2345 29.9768 57.3851 30.1174 57.5452L30.1223 57.5499L30.1272 57.5547L30.1321 57.5647L30.1416 57.5743L30.1514 57.5842L30.1613 57.594L30.1711 57.6036L30.176 57.6135L30.1858 57.6233V57.628L30.1953 57.6328L30.2051 57.6475L30.2101 57.6572L30.2199 57.667L30.2297 57.6768L30.2395 57.6866L30.2441 57.6965L30.2539 57.7061L30.3171 57.784L31.6274 56.4715ZM34.0121 64.0679V62.2273H32.1616C32.1761 62.3972 32.1909 62.572 32.2005 62.7469V62.7567V62.8102V62.8248L32.2054 62.8346V62.849V62.8588V62.8734V62.8881V62.8978V62.9125V62.9222V62.9368V62.9513V62.9611V62.9757V62.9855V63.0003H32.21V63.0099V63.0247V63.0391V63.0489V63.0635V63.0733V63.1461V63.2239V63.2337V63.2483V63.2581V63.2725V63.2825L32.2054 63.3066V63.3211V63.3455V63.3601V63.3699V63.3845V63.3991V63.4087V63.4234V63.4331V63.4478V63.4575L32.2005 63.4722V63.477V63.4866V63.4965V63.511V63.5353V63.55L32.1956 63.5644V63.5742C32.1907 63.7443 32.1761 63.9047 32.1616 64.0696H34.0121V64.0679ZM30.3258 71.1206L31.6274 69.8188L30.321 68.5123C30.2045 68.6484 30.0878 68.7844 29.9714 68.9155L29.9616 68.9253L29.9517 68.9352L29.9468 68.9399L29.9322 68.9545L29.9273 68.9643L29.9178 68.974L29.8984 68.9934L29.8935 69.0033L29.8836 69.0131L29.8738 69.0229L29.8643 69.0275L29.8545 69.0373L29.8496 69.0473L29.8398 69.057L29.8299 69.0668L29.8201 69.0766L29.8155 69.0863L29.8057 69.0912L29.8008 69.0959L29.7959 69.1008L29.7861 69.1105L29.7812 69.1203L29.7713 69.1301L29.7618 69.1398L29.752 69.1447V69.1494L29.7471 69.1544L29.7373 69.164L29.7275 69.1738L29.7176 69.1837L29.7081 69.1884L29.7032 69.1982L29.6934 69.2081L29.6302 69.2663L29.6253 69.2711V69.2758L29.5963 69.3001L29.5865 69.3099L29.5767 69.3195L29.5718 69.3294L29.562 69.3343L29.5521 69.3441L29.5426 69.3537L29.5328 69.3636L29.523 69.3732L29.5132 69.3781L29.5033 69.388L29.4984 69.3978L29.4791 69.4124L29.4693 69.4222L29.4595 69.4318C29.3138 69.5631 29.1682 69.6942 29.0127 69.8157L30.3258 71.1206ZM22.7293 73.5054H24.5749V71.6548C24.3806 71.6742 24.1864 71.6888 23.9872 71.6986H23.9777H23.9631H23.9486H23.9388H23.9245H23.9147H23.9L23.8854 71.7035H23.8756H23.8612H23.8513H23.8368H23.822H23.8125H23.8027H23.7978H23.788H23.7734H23.7639H23.7494H23.7395H23.725H23.6523H23.5794H23.5647H23.5552H23.5406H23.5308H23.5162H23.4922H23.4776H23.4532H23.439H23.4291H23.4144L23.4046 71.6986H23.3902H23.3804H23.3658H23.3512H23.3417H23.3272H23.3223H23.3173H23.3026L23.2884 71.6939H23.264H23.2494H23.2396H23.2252H23.2106L23.2008 71.689H23.186C23.0307 71.6842 22.8801 71.6697 22.7296 71.6549V73.5054H22.7293ZM15.6768 69.8188L16.9784 71.1206L18.29 69.8141L18.1298 69.678H18.1248L18.0376 69.6003L18.0278 69.5954L17.9985 69.5662L17.9886 69.5615L17.9791 69.5517L17.9693 69.5418L17.9644 69.5371L17.9595 69.5322L17.9497 69.5225L17.9399 69.5176L17.9304 69.5078L17.9205 69.4981L17.9107 69.4934V69.4885L17.9009 69.4787L17.8911 69.4739C17.7891 69.3817 17.692 69.2894 17.5998 69.1971C17.5074 69.1049 17.4152 69.0077 17.323 68.9057L17.3181 68.9009V68.896L17.2842 68.8574L17.2744 68.8474L17.2646 68.8378L17.2548 68.8279L17.2498 68.8232L17.2449 68.8183L17.2404 68.8086L17.2305 68.7988L17.2207 68.789L17.2109 68.7791L17.2011 68.7693L17.1962 68.7597L17.1867 68.7498L17.1817 68.7451L17.1768 68.7402L17.167 68.7305L17.1621 68.7207L17.1523 68.7109L17.133 68.6914L17.1281 68.677L17.1182 68.6672L17.0988 68.6477L17.0889 68.6379L17.0649 68.6087L17.055 68.5991L17.0501 68.5891V68.5843L16.9869 68.5066L15.6768 69.8188ZM18.2365 68.1333L18.4454 68.3521L18.6639 68.5658L18.6737 68.5706L18.6783 68.5803L18.6978 68.595L18.7027 68.6046L18.7125 68.6096L18.7224 68.6194L18.7273 68.6241L18.7368 68.6339L18.7466 68.6387L18.7515 68.6485H18.7564L18.7613 68.6534L18.7711 68.6631L18.7855 68.6778L18.7954 68.6824L18.8003 68.6922L18.8101 68.6971L18.8199 68.7019V68.7068L18.8248 68.7115L18.8347 68.7163L18.8491 68.731L18.8589 68.7407L18.8638 68.7456L18.8833 68.7602L18.8879 68.7649L18.9319 68.799L18.9368 68.8037L19.0776 68.9203L19.0825 68.9252L19.0923 68.9299L19.1457 68.9736L19.1506 68.9785H19.1552L19.1601 68.9833L19.1699 68.9931L19.1797 68.998L19.1896 69.0028L19.1945 69.0126L19.2043 69.0173L19.2138 69.0223L19.2187 69.0268L19.2236 69.0317L19.2334 69.0365L19.2433 69.0465L19.2482 69.0512L19.258 69.056L19.2675 69.0658L19.2773 69.0705L19.2871 69.0755V69.0802L19.297 69.0849L19.3019 69.0899L19.3117 69.0946L19.3212 69.1044L19.331 69.1092L19.3408 69.1139L19.3507 69.1239L19.3605 69.1287L19.3654 69.1334L19.3749 69.1432L19.3847 69.148L19.3945 69.1529L19.4043 69.1625L19.4142 69.1675L19.4237 69.1722L19.4286 69.1771L19.4335 69.1819L19.4433 69.1866L19.4482 69.1915L19.4628 69.2013L19.4677 69.2061L19.4772 69.211L19.487 69.2207L19.4968 69.2256L19.5017 69.2303H19.5067L19.5165 69.24L19.5263 69.2449L19.5358 69.2496L19.5456 69.2595L19.5604 69.2693C20.6775 70.0271 22.0275 70.4641 23.4653 70.5079H23.4799H23.5578H23.5722H23.6549C25.6221 70.5079 27.4143 69.7355 28.7354 68.4774L28.8374 68.3804L28.8423 68.3706L28.8521 68.3609L28.862 68.3511L28.8715 68.3462L28.8764 68.3363C30.1587 67.0444 30.9651 65.2813 31.0184 63.3336V63.3188V63.2411V63.2265V63.144V63.0761V63.0613V63.0517V63.0419C31.0135 62.6386 30.9747 62.2404 30.9066 61.8568L30.9017 61.847V61.8228L30.8968 61.8129V61.808V61.8034L30.8919 61.7936C30.7075 60.7736 30.3042 59.8264 29.7409 59.0005L29.736 58.9958L29.7311 58.9861L29.7261 58.9763L29.7212 58.9665L29.7117 58.9566V58.9517L29.7068 58.947L29.697 58.9324L29.6872 58.9226L29.6774 58.9033L29.6675 58.8984L29.658 58.879L29.6531 58.8692L29.6433 58.8645L29.6384 58.8547L29.6335 58.8448L29.6286 58.8352L29.6188 58.8304L29.6138 58.8204L29.6089 58.8108L29.6044 58.801L29.5945 58.796L29.5896 58.7864L29.5847 58.7766L29.5749 58.7667L29.57 58.7571L29.5651 58.7522L29.5602 58.7424L29.5552 58.7376L29.5507 58.7329L29.5457 58.728L29.5408 58.7181L29.531 58.7085L29.5261 58.6985L29.5212 58.6937L29.5163 58.6841L29.5065 58.6743L29.5015 58.6693V58.6646L29.497 58.6599L29.4871 58.65L29.4628 58.6207L29.4578 58.6111L29.4529 58.6012L29.448 58.5963L29.4434 58.5916C29.346 58.4703 29.244 58.349 29.1371 58.2273L29.1322 58.2224L29.1227 58.2126L29.1178 58.203L29.108 58.1982L29.1031 58.1933L29.0982 58.1885L29.0933 58.1787L29.0834 58.174L29.0785 58.1642L29.069 58.1543L29.0641 58.1496L29.0543 58.1398L29.0445 58.1299V58.1252L29.0396 58.1204L29.0298 58.1155L29.0248 58.1057L29.0153 58.0961L29.0055 58.0911L29.0006 58.0813L28.9908 58.0717L28.9423 58.023L28.9325 58.0132L28.9227 57.9987H28.9178L28.9083 57.9888L28.9034 57.979L28.8597 57.9353L28.8158 57.8965L28.8063 57.8867L28.8014 57.8769L28.7819 57.8623L28.7721 57.8525L28.7672 57.8428L28.7574 57.8379L28.7429 57.8186H28.738L28.7235 57.8038L28.7136 57.7942L28.7087 57.7894L28.6992 57.7796L28.6894 57.7747L28.6796 57.7651L28.6747 57.7601V57.7552L28.6649 57.7505L28.655 57.7408L28.6505 57.7359L28.6406 57.7261L28.6308 57.7164L28.6259 57.7117L28.6161 57.7017H28.6112L28.6063 57.6969L28.5968 57.6873L28.5918 57.6824L28.582 57.6726C28.4458 57.5511 28.3052 57.4298 28.1595 57.318H28.1546L28.1497 57.3132L27.9845 57.187L27.9747 57.1823L27.9649 57.1723L27.9554 57.1675L27.9505 57.1628H27.9455L27.9357 57.1531L27.9259 57.1482L27.921 57.1384L27.9112 57.1336L27.9017 57.1289L27.8919 57.124L27.882 57.1142L27.8722 57.1094L27.8624 57.1047L27.8529 57.0947L27.8431 57.0899L27.8333 57.0852L27.8283 57.0754L27.8185 57.0705L27.8087 57.0657L27.7992 57.056L27.7894 57.0513L27.7796 57.0464L27.7697 57.0366L27.7552 57.0318L27.7457 57.022C26.6331 56.2691 25.2977 55.8319 23.8697 55.7836H23.8599H23.85H23.8402H23.8353H23.8255H23.816H23.8014H23.7916H23.777H23.7675H23.7577H23.7479H23.743H23.7331L23.7186 55.7787H23.7091H23.6993H23.6847H23.6749H23.6606H23.6508H23.6362H23.6264H23.6166H23.6022H23.5924H23.5778L23.568 55.7836H23.5581H23.5536H23.5437H23.5339H23.5193H23.5095H23.5H23.4855H23.4756H23.4658H23.4609H23.4511H23.4416H23.427C21.4889 55.8417 19.7403 56.6481 18.4583 57.9207L18.4534 57.9304L18.4436 57.9353L18.4338 57.9451L18.4239 57.9548C17.1466 59.242 16.3356 61.0052 16.2868 62.9577V62.9675V63.0502V63.0599V63.1425V63.2152V63.225V63.2396V63.2494C16.2917 63.6719 16.3356 64.0801 16.4083 64.4833V64.4878V64.4978L16.4181 64.5512H16.423C16.6124 65.5516 17.0107 66.4844 17.5643 67.2955L17.5741 67.3052L17.5791 67.315L17.584 67.3248L17.5889 67.3296L17.5938 67.3345L17.5987 67.3392L17.6036 67.349L17.6085 67.3587L17.6131 67.3687L17.6229 67.3734L17.6328 67.3927L17.6377 67.4026L17.6475 67.4073V67.4122L17.6524 67.417L17.6573 67.4268L17.6668 67.4365L17.6717 67.4464L17.6766 67.4512L17.6815 67.4609L17.6914 67.4707L17.6963 67.4807L17.7012 67.4852L17.7061 67.4951L17.7159 67.5049L17.7205 67.5147L17.7254 67.5195L17.7303 67.5293L17.7401 67.5389L17.7451 67.5489L17.75 67.5537L17.7598 67.5635L17.7647 67.5732L17.7937 67.6121L17.8035 67.6218L17.8133 67.6365L17.8231 67.6462L17.8326 67.6607L17.8425 67.6707L17.857 67.6948L17.8668 67.7046L17.8767 67.7192L17.8862 67.7288L17.9007 67.7531L17.9106 67.758V67.7627L18.061 67.9376L18.0659 67.9474L18.0708 67.9572L18.0806 67.9619V67.9667L18.0856 67.9716L18.095 67.9814L18.1 67.9862L18.1098 67.9958L18.1147 68.0058L18.1245 68.0106L18.1294 68.0202L18.1392 68.03L18.1438 68.035L18.1537 68.0446L18.1586 68.0544L18.1684 68.0594L18.1733 68.0692L18.1831 68.0788L18.188 68.0837L18.1975 68.0936L18.2024 68.0981V68.1031L18.2123 68.108L18.2172 68.1178L18.227 68.1274L18.2365 68.1333ZM13.292 62.2273V64.0679H15.1425C15.123 63.898 15.1135 63.7232 15.1037 63.5484V63.5336V63.485L15.0988 63.4706V63.4559V63.4462V63.4315V63.4218V63.4071V63.3974V63.3828V63.3683V63.3585V63.3439L15.0939 63.3341V63.3193V63.3048V63.2949V63.2805V63.2705V63.2561V63.2463V63.2317V63.2219V63.1442V63.0713V63.0615V63.0469V63.0371V63.0227V63.008V62.9837V62.9739L15.0988 62.9497V62.9351V62.9253V62.9205V62.9109V62.8962V62.8865V62.8718V62.8572V62.8474V62.833V62.8231V62.8133L15.1037 62.8086V62.7938V62.7842V62.7549V62.7451V62.7307V62.7159C15.1135 62.5507 15.1278 62.3857 15.1425 62.2255H13.292V62.2273ZM39.015 28.1011C39.5737 28.6549 40.414 27.8146 39.8602 27.256L39.015 26.4158C38.4615 25.8572 37.6163 26.7022 38.17 27.256L39.015 28.1011ZM42.3909 31.4768C42.9444 32.0306 43.7895 31.1903 43.2359 30.6318L42.3909 29.7866C41.8371 29.2329 40.9919 30.078 41.5455 30.6318L42.3909 31.4768ZM45.7664 34.8525C46.3202 35.4063 47.1654 34.561 46.6115 34.0073L45.7664 33.1623C45.2126 32.6085 44.3676 33.4537 44.9214 34.0073L45.7664 34.8525ZM49.142 38.2282C49.696 38.7819 50.541 37.9367 49.9872 37.383L49.142 36.5378C48.5883 35.9842 47.7433 36.8292 48.2968 37.383L49.142 38.2282ZM52.5179 41.604C53.0713 42.1576 53.9164 41.3124 53.3629 40.7586L52.5179 39.9136C51.9641 39.3598 51.1189 40.205 51.6728 40.7586L52.5179 41.604ZM55.8933 44.9795C56.4472 45.5333 57.2924 44.6883 56.7385 44.1345L55.8933 43.2894C55.3398 42.7356 54.4944 43.5808 55.0482 44.1345L55.8933 44.9795ZM59.2691 48.3552C59.8229 48.909 60.6681 48.064 60.1145 47.5102L59.2691 46.6652C58.7157 46.1114 57.8705 46.9564 58.4241 47.5102L59.2691 48.3552ZM62.645 51.731C63.1985 52.2848 64.0437 51.4397 63.4901 50.8859L62.645 50.0407C62.101 49.4967 61.2558 50.3419 61.7998 50.8859L62.645 51.731ZM65.6856 54.7716C66.2391 55.3252 67.0843 54.48 66.5307 53.9264L66.0206 53.4164C65.4766 52.8725 64.6314 53.7175 65.1754 54.2616L65.6856 54.7716ZM35.6394 23.04C35.0856 22.4815 34.2404 23.3265 34.7991 23.8803L35.6394 24.7254C36.1978 25.2839 37.0379 24.4389 36.4846 23.8803L35.6394 23.04ZM26.7654 40.4333C27.3096 40.9773 28.1546 40.1323 27.6106 39.5881L26.7703 38.7431C26.2165 38.1893 25.3715 39.0345 25.9253 39.5881L26.7654 40.4333ZM30.141 43.809C30.6997 44.3627 31.5449 43.5176 30.9862 42.9638L30.141 42.1188C29.5922 41.565 28.7472 42.41 29.3008 42.9638L30.141 43.809ZM33.517 47.1846C34.0705 47.7384 34.9157 46.8934 34.3622 46.3396L33.517 45.4945C32.9632 44.9407 32.118 45.7858 32.6718 46.3396L33.517 47.1846ZM36.8924 50.5603C37.4511 51.1141 38.2914 50.2689 37.7374 49.7153L36.8924 48.8701C36.3389 48.3164 35.4939 49.1615 36.0474 49.7153L36.8924 50.5603ZM40.2683 53.9362C40.8218 54.49 41.667 53.6446 41.1133 53.091L40.2683 52.246C39.7143 51.6923 38.8693 52.5324 39.4229 53.091L40.2683 53.9362ZM43.6439 57.307C44.1977 57.8654 45.0429 57.0202 44.489 56.4666L43.6439 55.6214C43.0899 55.0677 42.2448 55.9129 42.7987 56.4666L43.6439 57.307ZM47.0194 60.6876C47.5732 61.2413 48.4183 60.3962 47.8644 59.8423L47.0194 58.9972C46.4659 58.4434 45.6207 59.2886 46.1744 59.8423L47.0194 60.6876ZM50.3955 64.0632C50.9491 64.617 51.7941 63.7718 51.2405 63.218L50.3955 62.373C49.8415 61.8192 48.9964 62.6644 49.5503 63.218L50.3955 64.0632ZM53.4357 67.1037C53.9945 67.6575 54.8395 66.8124 54.2808 66.2586L53.771 65.7487C53.2174 65.1949 52.3769 66.0401 52.9307 66.5937L53.4357 67.1037ZM23.3948 35.3674C22.8361 34.8136 21.9909 35.6589 22.5492 36.2126L23.3897 37.0576C23.9482 37.6112 24.7933 36.7711 24.2349 36.2126L23.3948 35.3674ZM61.2023 72.2474C61.5278 72.2474 61.7949 72.5145 61.7949 72.8449C61.7949 73.1702 61.5278 73.4421 61.2023 73.4421H26.7993C26.4693 73.4421 26.2021 73.1702 26.2021 72.8449C26.2021 72.5144 26.4693 72.2474 26.7993 72.2474H61.2023ZM41.0551 74.1077C41.3856 74.1077 41.6522 74.3748 41.6522 74.705C41.6522 75.0352 41.3854 75.3024 41.0551 75.3024H17.2503C16.9249 75.3024 16.6532 75.0352 16.6532 74.705C16.6532 74.3748 16.9249 74.1077 17.2503 74.1077H41.0551ZM14.8171 74.1077C15.1474 74.1077 15.4146 74.3748 15.4146 74.705C15.4146 75.0352 15.1474 75.3024 14.8171 75.3024H11.8396C11.5096 75.3024 11.2424 75.0352 11.2424 74.705C11.2424 74.3748 11.5096 74.1077 11.8396 74.1077H14.8171ZM66.0497 73.7677C66.3752 73.7677 66.6469 74.0348 66.6469 74.365C66.6469 74.6952 66.3752 74.9624 66.0497 74.9624H54.7665C54.441 74.9624 54.1737 74.6952 54.1737 74.365C54.1737 74.0348 54.441 73.7677 54.7665 73.7677H66.0497ZM16.9783 55.1699L15.6767 56.4715L16.983 57.7831C17.0948 57.6423 17.2115 57.5061 17.333 57.3749L17.3428 57.3653L17.3523 57.3555L17.3572 57.3506L17.3671 57.336L17.3769 57.3312L17.3867 57.3214L17.4013 57.3021L17.4108 57.2923L17.4206 57.2825L17.4304 57.2726L17.4402 57.263L17.4451 57.2531L17.4501 57.2482L17.4546 57.2435L17.4645 57.2387L17.4743 57.2289L17.4792 57.2191L17.489 57.2094L17.4988 57.1996L17.5038 57.1947L17.5083 57.19L17.5132 57.1801L17.5231 57.1752L17.5329 57.1656L17.5427 57.1559L17.5525 57.1459L17.5574 57.1363L17.5669 57.1315L17.5768 57.1215L17.5866 57.1119L17.5915 57.1021L17.6013 57.0971L17.6111 57.0875L17.6206 57.0777L17.6255 57.0678L17.6354 57.0582L17.6452 57.0534L17.6501 57.0434H17.655L17.6648 57.0338L17.6694 57.024L17.6792 57.0191L17.6891 57.0094L17.6989 56.9996L17.7038 56.9947L17.7087 56.9899L17.7185 56.9852L17.7231 56.9753L17.7329 56.9655L17.7428 56.9559L17.7526 56.946L17.7624 56.9411L17.7722 56.9315L17.7817 56.9215L17.7915 56.9118L17.7965 56.9071L17.8063 56.8973L17.8259 56.8779L17.8354 56.868L17.8452 56.8632L17.8598 56.8486L17.8647 56.8437L17.8745 56.8341L17.884 56.8293C18.0153 56.7079 18.1512 56.5913 18.2872 56.4795L16.9783 55.1699Z" fill="white"/>
</svg>
