<svg width="72" height="74" viewBox="0 0 72 74" fill="none" xmlns="http://www.w3.org/2000/svg">
<path d="M71.9061 3.10147C71.9061 1.39566 70.5105 0 68.8047 0H3.10147C1.39566 0 0 1.39566 0 3.10147V10.6277H71.9061V3.10147ZM49.2635 6.60612H46.3688C45.658 6.60612 45.0765 6.0246 45.0765 5.31384C45.0765 4.60309 45.658 4.02157 46.3688 4.02157H49.2635C49.9742 4.02157 50.5557 4.60309 50.5557 5.31384C50.5557 6.0246 49.9742 6.60612 49.2635 6.60612ZM57.8959 6.60612H55.0012C54.2904 6.60612 53.7089 6.0246 53.7089 5.31384C53.7089 4.60309 54.2904 4.02157 55.0012 4.02157H57.8959C58.6066 4.02157 59.1882 4.60309 59.1882 5.31384C59.1882 6.0246 58.6066 6.60612 57.8959 6.60612ZM66.5283 6.60612H63.6336C62.9228 6.60612 62.3413 6.0246 62.3413 5.31384C62.3413 4.60309 62.9228 4.02157 63.6336 4.02157H66.5283C67.239 4.02157 67.8206 4.60309 67.8206 5.31384C67.8206 6.0246 67.239 6.60612 66.5283 6.60612Z" fill="white"/>
<path d="M49.0092 37.9605C49.0086 37.96 49.0078 37.9593 49.0072 37.9587C49.0062 37.958 49.0054 37.9572 49.0046 37.9564C48.9602 37.9179 48.9132 37.8778 48.865 37.837C48.8578 37.8308 48.8514 37.8252 48.844 37.8191C48.7862 37.7705 48.7255 37.7201 48.6607 37.6673C45.0896 34.7427 40.5767 33.132 35.953 33.132C31.3293 33.132 26.8164 34.7427 23.2465 37.6662C23.2142 37.6926 23.1831 37.7182 23.1527 37.7434C23.1348 37.7581 23.1179 37.7724 23.1006 37.7868C23.0883 37.7971 23.0755 37.8077 23.0635 37.8178C23.051 37.8283 23.0392 37.8384 23.0269 37.8487C23.0108 37.8624 22.9944 37.8762 22.9786 37.8897C22.9665 37.9001 22.955 37.9101 22.9431 37.9203C22.9291 37.9323 22.915 37.9444 22.9013 37.9563C22.9007 37.9568 22.9002 37.9574 22.8995 37.9578C22.8986 37.9586 22.8976 37.9595 22.8967 37.9604C18.4383 41.7815 15.8813 47.3372 15.8813 53.2045C15.8813 59.0745 18.4414 64.6335 22.9026 68.4538C23.0152 68.5507 23.13 68.6466 23.2454 68.7409C26.8165 71.6654 31.3295 73.276 35.9531 73.276C40.5767 73.276 45.0897 71.6654 48.6601 68.7414C48.7761 68.6466 48.8909 68.5506 49.0011 68.4558C49.0011 68.4558 49.0025 68.4546 49.0032 68.454C49.0032 68.454 49.0034 68.4538 49.0035 68.4537C53.4657 64.6313 56.0249 59.0734 56.0249 53.2044C56.0245 47.3373 53.4676 41.7816 49.0092 37.9605ZM22.7717 64.6929C20.2926 61.8497 18.7938 58.2785 18.5147 54.4966H22.7717V64.6929ZM22.7717 51.9119H18.5147C18.794 48.1296 20.2926 44.5583 22.7717 41.7158V51.9119ZM34.6606 70.6425C31.493 70.4063 28.4351 69.3078 25.8458 67.4744C28.4347 65.641 31.4928 64.5424 34.6606 64.3063V70.6425ZM34.6606 61.7147C31.3592 61.929 28.1551 62.9602 25.3562 64.6983V54.4966H34.6606V61.7147ZM34.6606 51.9119H25.3562V41.7098C28.1552 43.4479 31.3593 44.4791 34.6606 44.6934V51.9119ZM34.6606 42.1019C31.4929 41.8657 28.4348 40.7671 25.8458 38.9337C28.4347 37.1003 31.4928 36.0017 34.6606 35.7656V42.1019ZM37.2452 35.7656C37.316 35.7708 37.3868 35.7756 37.4575 35.7817C40.5492 36.0502 43.5283 37.1411 46.0598 38.9337C43.4709 40.7671 40.4129 41.8656 37.2452 42.1018V35.7656ZM37.2452 70.6425V64.3063C40.413 64.5424 43.471 65.641 46.0599 67.4744C43.471 69.3078 40.4129 70.4063 37.2452 70.6425ZM46.5496 64.6982C43.7507 62.9602 40.5466 61.9289 37.2452 61.7146V54.4964H46.5496V64.6982ZM46.5496 51.9119H37.2452V44.6935C40.5465 44.4792 43.7506 43.448 46.5496 41.7099V51.9119ZM49.1341 64.6925V54.4964H53.3911C53.1119 58.2778 51.6136 61.8485 49.1341 64.6925ZM49.1341 51.9119V41.7158C51.6132 44.5583 53.1117 48.1296 53.3911 51.9119H49.1341Z" fill="white"/>
<path d="M0.0932617 13.3059V55.7422C0.0932617 57.448 1.48892 58.8437 3.19473 58.8437H14.0093C13.5412 57.0197 13.2964 55.1272 13.2964 53.2045C13.2964 46.5884 16.1772 40.3221 21.2006 36.0098C21.2078 36.0035 21.2953 35.9281 21.2953 35.9281L21.5014 35.7546L21.6093 35.666C25.6395 32.3653 30.7338 30.5473 35.9526 30.5473C41.1714 30.5473 46.2661 32.3657 50.2979 35.6675C50.3674 35.7241 50.4358 35.781 50.5013 35.836C50.5143 35.8468 50.5268 35.8574 50.5393 35.8682C50.5918 35.9126 50.6464 35.9593 50.6982 36.0043C55.7257 40.3169 58.6089 46.5856 58.6089 53.2045C58.6089 55.1271 58.364 57.0195 57.8957 58.8437H68.898C70.6038 58.8437 71.9995 57.448 71.9995 55.7422V13.3059H0.0932617ZM11.7028 28.0408C12.2074 28.5454 12.2074 29.3636 11.7028 29.8684C11.1981 30.373 10.3798 30.373 9.87518 29.8684L5.51338 25.5066C5.00878 25.0019 5.00878 24.1837 5.51338 23.679L9.87518 19.3173C10.3798 18.8126 11.1981 18.8126 11.7028 19.3173C12.2074 19.8219 12.2074 20.6401 11.7028 21.1449L8.25477 24.5929L11.7028 28.0408ZM21.5945 18.4695L16.4365 31.6425C16.1807 32.3087 15.4331 32.6415 14.7669 32.3856C14.1006 32.1297 13.7679 31.3823 14.0237 30.716L19.1816 17.543C19.4375 16.8767 20.1851 16.544 20.8513 16.7999C21.5176 17.0557 21.8504 17.8033 21.5945 18.4695ZM30.1048 25.5066L25.743 29.8684C25.2384 30.373 24.4201 30.373 23.9154 29.8684C23.4108 29.3636 23.4108 28.5455 23.9154 28.0408L27.3634 24.5928L23.9154 21.1448C23.4108 20.64 23.4108 19.8219 23.9154 19.3172C24.4201 18.8125 25.2384 18.8125 25.743 19.3172L30.1048 23.6789C30.6094 24.1837 30.6094 25.0019 30.1048 25.5066ZM60.2992 20.265H65.5717C66.2854 20.265 66.864 20.8436 66.864 21.5573C66.864 22.2709 66.2854 22.8495 65.5717 22.8495H60.2992C59.5856 22.8495 59.0069 22.2709 59.0069 21.5573C59.0069 20.8436 59.5855 20.265 60.2992 20.265ZM49.8059 20.265H55.0784C55.7921 20.265 56.3707 20.8436 56.3707 21.5573C56.3707 22.2709 55.7921 22.8495 55.0784 22.8495H49.8059C49.0923 22.8495 48.5136 22.2709 48.5136 21.5573C48.5136 20.8436 49.0922 20.265 49.8059 20.265ZM65.6654 28.1123H49.8996C49.1859 28.1123 48.6073 27.5338 48.6073 26.82C48.6073 26.1064 49.1859 25.5277 49.8996 25.5277H65.6654C66.379 25.5277 66.9576 26.1064 66.9576 26.82C66.9576 27.5338 66.379 28.1123 65.6654 28.1123Z" fill="white"/>
</svg>
